<?xml version="1.0" encoding="utf-8"?>
<!-- Generator: Adobe Illustrator 15.0.0, SVG Export Plug-In . SVG Version: 6.00 Build 0)  -->
<!DOCTYPE svg PUBLIC "-//W3C//DTD SVG 1.1//EN" "http://www.w3.org/Graphics/SVG/1.1/DTD/svg11.dtd">
<svg version="1.1" id="Layer_1" xmlns="http://www.w3.org/2000/svg" xmlns:xlink="http://www.w3.org/1999/xlink" x="0px" y="0px"
	 width="216px" height="216px" viewBox="0 0 216 216" enable-background="new 0 0 216 216" xml:space="preserve">
<circle cx="107.5" cy="110.5" r="7"/>
<path id="_x32_" fill="none" stroke="#FF0000" stroke-width="9" stroke-miterlimit="10" d="M89.5,145.5
	c0,0,37.818,60.065,45.598,57.145c7.779-2.92,12.766-53.723,12.766-53.723L208.5,62.403l-93.614-48.052
	c0,0-109.843,8.084-106.381,21.276c3.461,13.192,49.999,48.935,49.999,48.935L8.505,164.013
	C8.505,164.013,65.283,177.212,89.5,145.5z"/>
<path id="_x31_" fill="none" stroke="#00FF00" stroke-width="9" stroke-miterlimit="10" d="M14.545,21.784
	c0,0,44.352,102.103,42.014,109.294S19.456,208.03,19.456,208.03s174.796-21.598,183.88-2.291
	c9.084,19.306-40.737-89.767-40.737-89.767l40.737-72.19C203.338,43.783,52.399-19.097,14.545,21.784z"/>
</svg>
