<?xml version="1.0" encoding="utf-8"?>
<!-- Generator: Adobe Illustrator 15.0.0, SVG Export Plug-In . SVG Version: 6.00 Build 0)  -->
<!DOCTYPE svg PUBLIC "-//W3C//DTD SVG 1.1//EN" "http://www.w3.org/Graphics/SVG/1.1/DTD/svg11.dtd">
<svg version="1.1" id="Layer_1" xmlns="http://www.w3.org/2000/svg" xmlns:xlink="http://www.w3.org/1999/xlink" x="0px" y="0px"
	 width="216px" height="216px" viewBox="0 0 216 216" enable-background="new 0 0 216 216" xml:space="preserve">
<g id="Layer_1_1_" display="none">
	<g id="Layer_4" display="inline">
		<polygon fill="none" stroke="#009640" stroke-width="9" stroke-miterlimit="10" points="93.333,20.558 18.265,79.907 
			37.777,79.907 38.861,189.936 176.26,183.973 176.26,83.43 196.312,83.43 158.645,45.761 158.645,24.894 141.57,23.81 
			141.3,41.967 102.304,13.783 		"/>
	</g>
	<g id="Layer_3" display="inline">
		<polygon fill="none" stroke="#E30613" stroke-width="9" stroke-miterlimit="10" points="95.5,15.409 26.937,72.861 71.11,75.571 
			26.937,132.211 73.007,132.211 69.213,187.495 122.33,184.243 110.677,133.564 165.689,129.229 112.846,78.01 163.251,74.487 		
			"/>
	</g>
</g>
<g id="Layer_6">
	<path display="none" fill="none" stroke="#000000" stroke-width="9" stroke-miterlimit="10" d="M14.875,108
		c0,0,117.71-201.58,183.562-7c0,0-16.877,106.131-49.938,98c-33.062-8.131-1.244-55.562-11-58s-92.965,82.533-116,52.182
		c-23.035-30.354,23.195-65.053,46.5-71.557C91.307,115.121,11.082,118.566,14.875,108z"/>
	<path display="none" fill="none" stroke="#000000" stroke-width="9" stroke-miterlimit="10" d="M59,87c0,0-40.656-57.244-22.5-67
		c18.157-9.756,91.564,18.278,87.5,40.5s71.207-55.193,75-14c3.795,41.193-28.583,159.686-30.395,146.354
		c-5.5-40.5-112.687,24.431-118.105,6.812C45.08,182.051,80,144,80,144s-62.187-4.002-66.251-28.662
		C9.685,90.676,57.103,84.832,59,87z"/>
	<path display="none" fill="none" stroke="#000000" stroke-width="9" stroke-miterlimit="10" d="M41,92L29.977,199.453
		c0,0,172.21,16.021,173.023-9.453s-53-43.5-53-43.5l38-118.444c0,0-32.409,11.943-67,8.944C71.497,32.708,14.319,14.261,14,26.226
		C13.458,46.55,41,92,41,92z"/>
	<path display="none" fill="none" stroke="#000000" stroke-width="9" stroke-miterlimit="10" d="M204,85c0,0-19.238,6.364-48-5.5
		C138,56,71.427,19.723,53.266,20.755C33.531,21.878,38.005,72.52,28.5,96c-53.223,61.5,47,141,65.5,81
		c20.598-20.596,69.148,33.344,106-24L204,85z"/>
	<path display="none" fill="none" stroke="#000000" stroke-width="9" stroke-miterlimit="10" d="M196.5,85l-41.831,52.561L187,176.5
		L28.858,201c0,0-28.113-241.265,46.142-183c0,0-23.746,50.649,38.08,43.874C174.908,55.099,148,23,148,23S220.619,39.47,196.5,85z"
		/>
	<path display="none" fill="none" stroke="#000000" stroke-width="9" stroke-miterlimit="10" d="M22.5,80.5
		c0,0,83.997-72.212,84.776-70.316C107.685,11.177,130.762,60.021,154,87.5c21.146,25.006,42.673,28.922,42.673,28.922
		S134.641,143.666,178,177c43.361,33.336-166.55,32.518-164.924,6.5S91.939,122.49,54,115C16.059,107.51,22.5,80.5,22.5,80.5z"/>
	<path display="none" fill="none" stroke="#000000" stroke-width="9" stroke-miterlimit="10" d="M58.5,77
		c0,0-84.025-63.771-9.5-63.5c74.525,0.271,76.5,47,76.5,47S179.604,6.572,186.919,25s21.399,123.6-21.419,132
		S43,201.479,43,201.479S-32.016,147.73,58.5,77z"/>
	<path display="none" fill="none" stroke="#000000" stroke-width="9" stroke-miterlimit="10" d="M44,97.5
		c1.016-1.724-11.201-51.165,15.5-63c4.561-2.021,70.721,17.596,75.5,15.5c42.02-18.437,59-22.5,59-22.5L159,131
		c0,0,49.327-8.889,40.111,21.465C189.361,184.586,17.5,221.5,41,178.5c19.364-35.434-30.776-65.873-27.255-68.988
		C17.271,106.394,44,97.5,44,97.5z"/>
	<path display="none" fill="none" stroke="#000000" stroke-width="9" stroke-miterlimit="10" d="M62.262,128.723L16,17.5
		c0,0,112.625,27.942,111,54.5c-1.627,26.557,72-21.18,72,0.5s-9,121.012-9,121.012l-74.896-27.227c0,0-86.643,40.506-92.604,27.227
		C16.537,180.232,47.898,131.164,62.262,128.723z"/>
	<path display="none" fill="none" stroke="#000000" stroke-width="9" stroke-miterlimit="10" d="M92.952,143.525
		c0,0,33.735,63.721,41.048,60.975c7.312-2.744,12-50.5,12-50.5l57-81.33L115,27.5c0,0-103.254,7.599-100,20s47,46,47,46l-47,74.686
		C15,168.186,70.188,173.336,92.952,143.525z"/>
	<path display="none" fill="none" stroke="#000000" stroke-width="9" stroke-miterlimit="10" d="M18.5,26.347
		c0,0,40.642,93.563,38.5,100.153s-34,70.516-34,70.516s160.176-19.791,168.5-2.1s-37.33-82.258-37.33-82.258l37.33-66.152
		C191.502,46.506,53.188-11.114,18.5,26.347z"/>
	<path fill="none" stroke="#000000" stroke-width="9" stroke-miterlimit="10" d="M95.5,11.5c0,0-12.777,7.409-15,9
		C68.529,29.068,21.463,77.568,29.387,112c9.396,40.822,64.646,27.668,41.159,42.879c-23.487,15.211-41.159,18.789-41.159,18.789
		S143.803,209.604,157,193.5c13.199-16.107,40.227-47.486,24.5-49.5c-15.723-2.012-38.461-66.434-2-68s3.158-53.632-21-42
		s-54.179,28.271-66.257,17.309C80.166,40.349,114.012,1.328,95.5,11.5z"/>
	<path display="none" fill="none" stroke="#000000" stroke-width="9" stroke-miterlimit="10" d="M104.479,23.732L37.5,16.5
		c0,0,14,26.776,14,89.107c0,0-61.952,74.407-4.5,83.893c17.559,2.898,43.771-24.557,61-23.125c39.143,3.252,90.619,30.846,75,4.125
		c-22.492-38.482,6.268-85.771,12.5-85.5s13.385-71.816-45.32-30.617C91.473,95.583,117.249,15.603,104.479,23.732"/>
	<path display="none" fill="none" stroke="#000000" stroke-width="9" stroke-miterlimit="10" d="M182.583,95.278
		c0,0-118.07-89.699-137.583-76.42C25.488,32.137,6.786,174.447,51.5,197.332C96.214,220.219,115,152.5,115,152.5
		s55.744,7.713,65.5,34C180.5,186.502,224.316,137.014,182.583,95.278z"/>
	<path display="none" fill="none" stroke="#000000" stroke-width="9" stroke-miterlimit="10" d="M59.5,101.819
		C59.4,101.627-2.681-6.563,91,14.5C171.758,32.657,202.258,90.61,192.5,115c-9.756,24.391-62.335-2.84-40.113,43.5
		c0,0,60.961,15.762,37.113,35.002C165.652,212.744-6.951,212.418,15,142.5C36.951,72.581,59.5,101.819,59.5,101.819z"/>
	<path display="none" fill="none" stroke="#000000" stroke-width="9" stroke-miterlimit="10" d="M23.638,22
		C98.226,22.117,108,39,124.5,39.5c6.5,1.125,61.833,16.693,62.27,18.002c0.436,1.309,1.746,44.879,1.746,44.879
		S201.408,231,166.5,198c-19.605-6.1-81.5-26.5-81.5-26.5s-70.907,19.634-63.5,11.794S65,94,65,94L23.638,22z"/>
	<path display="none" fill="none" stroke="#000000" stroke-width="9" stroke-miterlimit="10" d="M97,11
		c33.299,3.815,59.969,73.288,56.5,83s64.037,61.907,46,90.698c-18.035,28.788-70.912,14.993-77.5-2.698
		c-6.592-17.689-27.982-27.719-37-13.5c-9.02,14.221-90.644,64.057-71.913-1.5c1.67-5.844,24.492-24.76,35.413-40
		c7.376-12.105,4.756-31.462,8-42C66.965,50.988,84.426,9.56,97,11z"/>
	<path display="none" fill="none" stroke="#000000" stroke-width="9" stroke-miterlimit="10" d="M52.5,101l-9-87.5
		c0,0,69.07,17.129,87.5,44.5c18.428,27.371,40-35.75,40-35.75s26.589,126.158,32.009,140.25c5.421,14.092-209.964,59.061-181.509-3
		C21.5,159.5,109.41,129.453,52.5,101z"/>
	<path display="none" fill="none" stroke="#000000" stroke-width="9" stroke-miterlimit="10" d="M24,14c0,0,105.639,38.484,120,64.5
		c14.363,26.016,24-58,24-58s43.098,110.479,34.5,162.5c-8.504,51.449-186-6.5-186-6.5s21.175-60.832,41.5-54.875
		C78.325,127.584,24,14,24,14z"/>
	<path display="none" fill="none" stroke="#000000" stroke-width="9" stroke-miterlimit="10" d="M115,61.5c0,0-75.133-73.06-96-11
		c-20.866,62.061,47.402,191.154,76.5,144c29.096-47.154,96.566-5.697,97.38-1.51c0.813,4.187,44.47-56.779-50.38-59.49
		c0,0,85.021-60.007,52.5-82.5C162.48,28.507,115,61.5,115,61.5z"/>
</g>
<g id="Layer_5" display="none">
</g>
<circle display="none" fill="#FFCCFF" cx="108" cy="108" r="23"/>
<circle display="none" cx="108" cy="108" r="7"/>
</svg>
