<?xml version="1.0" encoding="utf-8"?>
<!-- Generator: Adobe Illustrator 15.0.0, SVG Export Plug-In . SVG Version: 6.00 Build 0)  -->
<!DOCTYPE svg PUBLIC "-//W3C//DTD SVG 1.1//EN" "http://www.w3.org/Graphics/SVG/1.1/DTD/svg11.dtd">
<svg version="1.1" xmlns="http://www.w3.org/2000/svg" xmlns:xlink="http://www.w3.org/1999/xlink" x="0px" y="0px" width="216px"
	 height="216px" viewBox="0 0 216 216" enable-background="new 0 0 216 216" xml:space="preserve">
<g id="Layer_2" display="none">
	<path id="T9" fill="none" stroke="#FF0000" stroke-width="9" stroke-miterlimit="10" d="M159.5,39.5c0,0,90,33,8,160l-130-25l11-36
		l-41-77l89-53l34.5,33L159.5,39.5z"/>
	<path id="T7" fill="none" stroke="#FF0000" stroke-width="9" stroke-miterlimit="10" d="M33.5,17.5c0,0-36.216,126.5-8.216,155
		S85,207.5,85,207.5l46-33l66.5,25l-42-145l36-33L85,35.5l-32.5-27L33.5,17.5z"/>
	<path id="T5" fill="none" stroke="#FF0000" stroke-width="9" stroke-miterlimit="10" d="M14.663,67.5v126
		c0,0,102.837-42,141.837,14l37-106.5l-58-57.5l19-35l-139.837,7l27.837,41L14.663,67.5z"/>
	<path id="T4" fill="none" stroke="#00FF00" stroke-width="9" stroke-miterlimit="10" d="M59.5,66.5l-36-28c0,0,141.5-52,167-7
		s-16.76,122.558-5,135s-62,42-62,42l-31-52l-69,32l-14-47c0,0,10-77,30-45S59.5,66.5,59.5,66.5z"/>
	<path id="T2" fill="none" stroke="#00FF00" stroke-width="9" stroke-miterlimit="10" d="M18.5,20.5c0,0,68,164,8,182l173-16
		c0,0-68.5-27-38-75c11.275-17.745,44-65,44-65s-22.233-37.022-65.733-14.022S71.5,52.5,71.5,52.5l-34-39
		C37.5,13.5,13.925,7.009,18.5,20.5z"/>
	<path id="T1" fill="none" stroke="#FF0000" stroke-width="9" stroke-miterlimit="10" d="M13.5,18.5c0,0-4.627,218,94.873,183
		c99.5-35,33.127-29,33.127-29s31-53,46-35s42-126-48-113l-38.5,27l-63.5-38L13.5,18.5z"/>
	<path id="T3" fill="none" stroke="#FF0000" stroke-width="9" stroke-miterlimit="10" d="M49.5,38.5c0,0-42,127-27,155
		s78.5-5,78.5-5l66.5,11l28-27l-36-57.5l36-96.5h-169L49.5,38.5z"/>
	<path id="T6" fill="none" stroke="#00FF00" stroke-width="9" stroke-miterlimit="10" d="M17.911,77.5c0,0,89.041-67.003,97.089-52
		c5.588,10.416,85.5,45,74.066,68.604c-8.181,16.888,17.963,32.826,16.434,52.396c-5,64-55.383,74-93.691,32L85,208.5l-58.5-42
		l12-41L9.5,101L17.911,77.5z"/>
	<path id="T8" fill="none" stroke="#00FF00" stroke-width="9" stroke-miterlimit="10" d="M182.5,202.5c0,0-163.397,5-155.397-34
		S4.5,86.624,14.5,95.5c0,0,46,18.5,36,4s-12.396-141,54.302-62c0,0,24.698,43,59.698-4s53,119.258-6,127
		C158.5,160.5,215.5,193.5,182.5,202.5z"/>
	<path id="T10" fill="none" stroke="#00FF00" stroke-width="9" stroke-miterlimit="10" d="M169.5,40.5l31.213,104.04
		c0,0-19.158,93.849-64.213,44.96c-47-51-37.387-3.782-79.387-5.782S-18.694,74.498,53.5,62.5s8-53.539,47.5-50.77
		S181.572,14.242,169.5,40.5z"/>
	<path id="_x32_6" fill="none" stroke="#000000" stroke-width="9" stroke-miterlimit="10" d="M26.5,78.5l69-56l12.5,34l40.5-34
		l48,103c0,0,27,112-95.5,72s-46.5-40-46.5-40l-40-56.5L26.5,78.5z"/>
	<path id="_x32_7" fill="none" stroke="#000000" stroke-width="9" stroke-miterlimit="10" d="M29.5,22.5c0,0-30,131,13,174l116-25
		l45,27l-9-113.5l4.527-62.5L108,18.5l-23,41l-31.5-41L29.5,22.5z"/>
	<path id="_x32_8" fill="none" stroke="#000000" stroke-width="9" stroke-miterlimit="10" d="M167.5,48.5L85,11.5l-77.5,48l38,111
		l-26.18,28c0,0,142.18-60,123.18,0c0,0,82,4,40-67.5s27-38.5,27-38.5v-19L167.5,48.5z"/>
	<path id="_x32_9" fill="none" stroke="#000000" stroke-width="9" stroke-miterlimit="10" d="M24.5,19.5l76.5,29l83.5-37
		c0,0,50,121.5-14,163c0,0,48,29.08-89,24.04s-23-39.04-22-43.04s-52-50.187-52-50.187l36-43.813L14.133,29.686L24.5,19.5z"/>
	<path id="_x33_0" fill="none" stroke="#000000" stroke-width="9" stroke-miterlimit="10" d="M91.5,22.5l-79,48l54,126
		c0,0,210,27,112-38l17-100l-101,7l43-50L91.5,22.5z"/>
</g>
<g id="Layer_1">
	<g id="Layer_1_1_" display="none">
		<g id="Layer_4" display="inline">
			<polygon fill="none" stroke="#009640" stroke-width="9" stroke-miterlimit="10" points="93.333,20.558 18.265,79.907 
				37.777,79.907 38.861,189.936 176.26,183.973 176.26,83.43 196.312,83.43 158.645,45.761 158.645,24.894 141.57,23.81 
				141.3,41.967 102.304,13.783 			"/>
		</g>
		<g id="Layer_3" display="inline">
			<polygon fill="none" stroke="#E30613" stroke-width="9" stroke-miterlimit="10" points="95.5,15.409 26.937,72.861 71.11,75.571 
				26.937,132.211 73.007,132.211 69.213,187.495 122.33,184.243 110.677,133.564 165.689,129.229 112.846,78.01 163.251,74.487 			
				"/>
		</g>
	</g>
	<g id="Layer_6">
		<path id="_x31_9" display="none" fill="none" stroke="#00FF00" stroke-width="9" stroke-miterlimit="10" d="M14.875,108
			c0,0,117.71-201.58,183.562-7c0,0-16.877,106.131-49.938,98c-33.062-8.131-1.244-55.562-11-58s-92.965,82.533-116,52.182
			c-23.035-30.354,23.195-65.053,46.5-71.557C91.307,115.121,11.082,118.566,14.875,108z"/>
		<path id="_x31_7" display="none" fill="none" stroke="#00FF00" stroke-width="9" stroke-miterlimit="10" d="M59,87
			c0,0-40.656-57.244-22.5-67c18.157-9.756,91.564,18.278,87.5,40.5s71.207-55.193,75-14
			c3.795,41.193-28.583,159.686-30.395,146.354c-5.5-40.5-112.687,24.431-118.105,6.812C45.08,182.051,80,144,80,144
			s-62.187-4.002-66.251-28.662C9.685,90.676,57.103,84.832,59,87z"/>
		<path id="_x31_5" display="none" fill="none" stroke="#00FF00" stroke-width="9" stroke-miterlimit="10" d="M41,92L29.977,199.453
			c0,0,172.21,16.021,173.023-9.453s-53-43.5-53-43.5l38-118.444c0,0-32.409,11.943-67,8.944C71.497,32.708,14.319,14.261,14,26.226
			C13.458,46.55,41,92,41,92z"/>
		<path id="_x31_3" display="none" fill="none" stroke="#00FF00" stroke-width="9" stroke-miterlimit="10" d="M204,85
			c0,0-19.238,6.364-48-5.5C138,56,71.427,19.723,53.266,20.755C33.531,21.878,38.005,72.52,28.5,96c-53.223,61.5,47,141,65.5,81
			c20.598-20.596,69.148,33.344,106-24L204,85z"/>
		<path id="_x31_1" display="none" fill="none" stroke="#00FF00" stroke-width="9" stroke-miterlimit="10" d="M196.5,85
			l-41.831,52.561L187,176.5L28.858,201c0,0-28.113-241.265,46.142-183c0,0-23.746,50.649,38.08,43.874
			C174.908,55.099,148,23,148,23S220.619,39.47,196.5,85z"/>
		<path id="_x31_0" display="none" fill="none" stroke="#FF0000" stroke-width="9" stroke-miterlimit="10" d="M22.5,80.5
			c0,0,83.997-72.212,84.776-70.316C107.685,11.177,130.762,60.021,154,87.5c21.146,25.006,42.673,28.922,42.673,28.922
			S134.641,143.666,178,177c43.361,33.336-166.55,32.518-164.924,6.5S91.939,122.49,54,115C16.059,107.51,22.5,80.5,22.5,80.5z"/>
		<path id="_x38_" display="none" fill="none" stroke="#FF0000" stroke-width="9" stroke-miterlimit="10" d="M58.5,77
			c0,0-84.025-63.771-9.5-63.5c74.525,0.271,76.5,47,76.5,47S179.604,6.572,186.919,25s21.399,123.6-21.419,132
			S43,201.479,43,201.479S-32.016,147.73,58.5,77z"/>
		<path id="_x36_" fill="none" stroke="#FF0000" stroke-width="9" stroke-miterlimit="10" d="M44,97.5
			c1.016-1.724-11.201-51.165,15.5-63c4.561-2.021,70.721,17.596,75.5,15.5c42.02-18.437,59-22.5,59-22.5L159,131
			c0,0,49.327-8.889,40.111,21.465C189.361,184.586,17.5,221.5,41,178.5c19.364-35.434-30.776-65.873-27.255-68.988
			C17.271,106.394,44,97.5,44,97.5z"/>
		<path id="_x34_" display="none" fill="none" stroke="#FF0000" stroke-width="9" stroke-miterlimit="10" d="M62.262,128.723
			L16,17.5c0,0,112.625,27.942,111,54.5c-1.627,26.557,72-21.18,72,0.5s-9,121.012-9,121.012l-74.896-27.227
			c0,0-86.643,40.506-92.604,27.227C16.537,180.232,47.898,131.164,62.262,128.723z"/>
		<path id="_x32_" display="none" fill="none" stroke="#FF0000" stroke-width="9" stroke-miterlimit="10" d="M92.952,143.525
			c0,0,33.735,63.721,41.048,60.975c7.312-2.744,12-50.5,12-50.5l57-81.33L115,27.5c0,0-103.254,7.599-100,20s47,46,47,46
			l-47,74.686C15,168.186,70.188,173.336,92.952,143.525z"/>
		<path id="_x31_" display="none" fill="none" stroke="#00FF00" stroke-width="9" stroke-miterlimit="10" d="M18.5,26.347
			c0,0,40.642,93.563,38.5,100.153s-34,70.516-34,70.516s160.176-19.791,168.5-2.1s-37.33-82.258-37.33-82.258l37.33-66.152
			C191.502,46.506,53.188-11.114,18.5,26.347z"/>
		<path id="_x33_" display="none" fill="none" stroke="#00FF00" stroke-width="9" stroke-miterlimit="10" d="M95.5,11.5
			c0,0-12.777,7.409-15,9C68.529,29.068,21.463,77.568,29.387,112c9.396,40.822,64.646,27.668,41.159,42.879
			c-23.487,15.211-41.159,18.789-41.159,18.789S143.803,209.604,157,193.5c13.199-16.107,40.227-47.486,24.5-49.5
			c-15.723-2.012-38.461-66.434-2-68s3.158-53.632-21-42s-54.179,28.271-66.257,17.309C80.166,40.349,114.012,1.328,95.5,11.5z"/>
		<path id="_x35_" fill="none" stroke="#00FF00" stroke-width="9" stroke-miterlimit="10" d="M104.479,23.732L37.5,16.5
			c0,0,14,26.776,14,89.107c0,0-61.952,74.407-4.5,83.893c17.559,2.898,43.771-24.557,61-23.125
			c39.143,3.252,90.619,30.846,75,4.125c-22.492-38.482,6.268-85.771,12.5-85.5s13.385-71.816-45.32-30.617
			C91.473,95.583,117.249,15.603,104.479,23.732"/>
		<path id="_x37_" display="none" fill="none" stroke="#00FF00" stroke-width="9" stroke-miterlimit="10" d="M182.583,95.278
			c0,0-118.07-89.699-137.583-76.42C25.488,32.137,6.786,174.447,51.5,197.332C96.214,220.219,115,152.5,115,152.5
			s55.744,7.713,65.5,34C180.5,186.502,224.316,137.014,182.583,95.278z"/>
		<path id="_x39_" display="none" fill="none" stroke="#00FF00" stroke-width="9" stroke-miterlimit="10" d="M59.5,101.819
			C59.4,101.627-2.681-6.563,91,14.5C171.758,32.657,202.258,90.61,192.5,115c-9.756,24.391-62.335-2.84-40.113,43.5
			c0,0,60.961,15.762,37.113,35.002C165.652,212.744-6.951,212.418,15,142.5C36.951,72.581,59.5,101.819,59.5,101.819z"/>
		<path id="_x31_2" display="none" fill="none" stroke="#FF0000" stroke-width="9" stroke-miterlimit="10" d="M23.638,22
			C98.226,22.117,108,39,124.5,39.5c6.5,1.125,61.833,16.693,62.27,18.002c0.436,1.309,1.746,44.879,1.746,44.879
			S201.408,231,166.5,198c-19.605-6.1-81.5-26.5-81.5-26.5s-70.907,19.634-63.5,11.794S65,94,65,94L23.638,22z"/>
		<path id="_x31_4" display="none" fill="none" stroke="#FF0000" stroke-width="9" stroke-miterlimit="10" d="M97,11
			c33.299,3.815,59.969,73.288,56.5,83s64.037,61.907,46,90.698c-18.035,28.788-70.912,14.993-77.5-2.698
			c-6.592-17.689-27.982-27.719-37-13.5c-9.02,14.221-90.644,64.057-71.913-1.5c1.67-5.844,24.492-24.76,35.413-40
			c7.376-12.105,4.756-31.462,8-42C66.965,50.988,84.426,9.56,97,11z"/>
		<path id="_x31_6" display="none" fill="none" stroke="#FF0000" stroke-width="9" stroke-miterlimit="10" d="M52.5,101l-9-87.5
			c0,0,69.07,17.129,87.5,44.5c18.428,27.371,40-35.75,40-35.75s26.589,126.158,32.009,140.25
			c5.421,14.092-209.964,59.061-181.509-3C21.5,159.5,109.41,129.453,52.5,101z"/>
		<path id="_x31_8" display="none" fill="none" stroke="#FF0000" stroke-width="9" stroke-miterlimit="10" d="M24,14
			c0,0,105.639,38.484,120,64.5c14.363,26.016,24-58,24-58s43.098,110.479,34.5,162.5c-8.504,51.449-186-6.5-186-6.5
			s21.175-60.832,41.5-54.875C78.325,127.584,24,14,24,14z"/>
		<path id="_x32_0" display="none" fill="none" stroke="#FF0000" stroke-width="9" stroke-miterlimit="10" d="M115,61.5
			c0,0-75.133-73.06-96-11c-20.866,62.061,47.402,191.154,76.5,144c29.096-47.154,96.566-5.697,97.38-1.51
			c0.813,4.187,44.47-56.779-50.38-59.49c0,0,85.021-60.007,52.5-82.5C162.48,28.507,115,61.5,115,61.5z"/>
	</g>
	<g id="Layer_5" display="none">
	</g>
	<circle display="none" fill="#FFCCFF" cx="108" cy="108" r="23"/>
	<circle cx="108" cy="108" r="7"/>
</g>
</svg>
