<?xml version="1.0" encoding="UTF-8" standalone="no"?>
<!-- Generator: Adobe Illustrator 15.0.0, SVG Export Plug-In . SVG Version: 6.00 Build 0)  -->

<svg
   xmlns:dc="http://purl.org/dc/elements/1.1/"
   xmlns:cc="http://creativecommons.org/ns#"
   xmlns:rdf="http://www.w3.org/1999/02/22-rdf-syntax-ns#"
   xmlns:svg="http://www.w3.org/2000/svg"
   xmlns="http://www.w3.org/2000/svg"
   xmlns:sodipodi="http://sodipodi.sourceforge.net/DTD/sodipodi-0.dtd"
   xmlns:inkscape="http://www.inkscape.org/namespaces/inkscape"
   version="1.1"
   x="0px"
   y="0px"
   width="216px"
   height="216px"
   viewBox="0 0 216 216"
   enable-background="new 0 0 216 216"
   xml:space="preserve"
   id="svg2"
   inkscape:version="0.91 r13725"
   sodipodi:docname="dot.svg"><metadata
     id="metadata58"><rdf:RDF><cc:Work
         rdf:about=""><dc:format>image/svg+xml</dc:format><dc:type
           rdf:resource="http://purl.org/dc/dcmitype/StillImage" /><dc:title></dc:title></cc:Work></rdf:RDF></metadata><defs
     id="defs56" /><sodipodi:namedview
     pagecolor="#ffffff"
     bordercolor="#666666"
     borderopacity="1"
     objecttolerance="10"
     gridtolerance="10"
     guidetolerance="10"
     inkscape:pageopacity="0"
     inkscape:pageshadow="2"
     inkscape:window-width="660"
     inkscape:window-height="480"
     id="namedview54"
     showgrid="false"
     inkscape:zoom="1.0925926"
     inkscape:cx="108"
     inkscape:cy="108"
     inkscape:window-x="0"
     inkscape:window-y="0"
     inkscape:window-maximized="0"
     inkscape:current-layer="Layer_1" /><g
     id="Layer_2"
     display="none"><path
       id="T9"
       fill="none"
       stroke="#FF0000"
       stroke-width="9"
       stroke-miterlimit="10"
       d="M159.5,39.5c0,0,90,33,8,160l-130-25l11-36   l-41-77l89-53l34.5,33L159.5,39.5z" /><path
       id="T7"
       fill="none"
       stroke="#FF0000"
       stroke-width="9"
       stroke-miterlimit="10"
       d="M33.5,17.5c0,0-36.216,126.5-8.216,155   S85,207.5,85,207.5l46-33l66.5,25l-42-145l36-33L85,35.5l-32.5-27L33.5,17.5z" /><path
       id="T5"
       fill="none"
       stroke="#FF0000"
       stroke-width="9"
       stroke-miterlimit="10"
       d="M14.663,67.5v126   c0,0,102.837-42,141.837,14l37-106.5l-58-57.5l19-35l-139.837,7l27.837,41L14.663,67.5z" /><path
       id="T4"
       fill="none"
       stroke="#00FF00"
       stroke-width="9"
       stroke-miterlimit="10"
       d="M59.5,66.5l-36-28c0,0,141.5-52,167-7   s-16.76,122.558-5,135s-62,42-62,42l-31-52l-69,32l-14-47c0,0,10-77,30-45S59.5,66.5,59.5,66.5z" /><path
       id="T2"
       fill="none"
       stroke="#00FF00"
       stroke-width="9"
       stroke-miterlimit="10"
       d="M18.5,20.5c0,0,68,164,8,182l173-16   c0,0-68.5-27-38-75c11.275-17.745,44-65,44-65s-22.233-37.022-65.733-14.022S71.5,52.5,71.5,52.5l-34-39   C37.5,13.5,13.925,7.009,18.5,20.5z" /><path
       id="T1"
       fill="none"
       stroke="#FF0000"
       stroke-width="9"
       stroke-miterlimit="10"
       d="M13.5,18.5c0,0-4.627,218,94.873,183   c99.5-35,33.127-29,33.127-29s31-53,46-35s42-126-48-113l-38.5,27l-63.5-38L13.5,18.5z" /><path
       id="T3"
       fill="none"
       stroke="#FF0000"
       stroke-width="9"
       stroke-miterlimit="10"
       d="M49.5,38.5c0,0-42,127-27,155   s78.5-5,78.5-5l66.5,11l28-27l-36-57.5l36-96.5h-169L49.5,38.5z" /><path
       id="T6"
       fill="none"
       stroke="#00FF00"
       stroke-width="9"
       stroke-miterlimit="10"
       d="M17.911,77.5c0,0,89.041-67.003,97.089-52   c5.588,10.416,85.5,45,74.066,68.604c-8.181,16.888,17.963,32.826,16.434,52.396c-5,64-55.383,74-93.691,32L85,208.5l-58.5-42   l12-41L9.5,101L17.911,77.5z" /><path
       id="T8"
       fill="none"
       stroke="#00FF00"
       stroke-width="9"
       stroke-miterlimit="10"
       d="M182.5,202.5c0,0-163.397,5-155.397-34   S4.5,86.624,14.5,95.5c0,0,46,18.5,36,4s-12.396-141,54.302-62c0,0,24.698,43,59.698-4s53,119.258-6,127   C158.5,160.5,215.5,193.5,182.5,202.5z" /><path
       id="T10"
       fill="none"
       stroke="#00FF00"
       stroke-width="9"
       stroke-miterlimit="10"
       d="M169.5,40.5l31.213,104.04   c0,0-19.158,93.849-64.213,44.96c-47-51-37.387-3.782-79.387-5.782S-18.694,74.498,53.5,62.5s8-53.539,47.5-50.77   S181.572,14.242,169.5,40.5z" /><path
       id="_x32_6"
       fill="none"
       stroke="#000000"
       stroke-width="9"
       stroke-miterlimit="10"
       d="M26.5,78.5l69-56l12.5,34l40.5-34   l48,103c0,0,27,112-95.5,72s-46.5-40-46.5-40l-40-56.5L26.5,78.5z" /><path
       id="_x32_7"
       fill="none"
       stroke="#000000"
       stroke-width="9"
       stroke-miterlimit="10"
       d="M29.5,22.5c0,0-30,131,13,174l116-25   l45,27l-9-113.5l4.527-62.5L108,18.5l-23,41l-31.5-41L29.5,22.5z" /><path
       id="_x32_8"
       fill="none"
       stroke="#000000"
       stroke-width="9"
       stroke-miterlimit="10"
       d="M167.5,48.5L85,11.5l-77.5,48l38,111   l-26.18,28c0,0,142.18-60,123.18,0c0,0,82,4,40-67.5s27-38.5,27-38.5v-19L167.5,48.5z" /><path
       id="_x32_9"
       fill="none"
       stroke="#000000"
       stroke-width="9"
       stroke-miterlimit="10"
       d="M24.5,19.5l76.5,29l83.5-37   c0,0,50,121.5-14,163c0,0,48,29.08-89,24.04s-23-39.04-22-43.04s-52-50.187-52-50.187l36-43.813L14.133,29.686L24.5,19.5z" /><path
       id="_x33_0"
       fill="none"
       stroke="#000000"
       stroke-width="9"
       stroke-miterlimit="10"
       d="M91.5,22.5l-79,48l54,126   c0,0,210,27,112-38l17-100l-101,7l43-50L91.5,22.5z" /></g><g
     id="Layer_1"><g
       id="Layer_1_1_"
       display="none"><g
         id="Layer_4"
         display="inline"><polygon
           fill="none"
           stroke="#009640"
           stroke-width="9"
           stroke-miterlimit="10"
           points="93.333,20.558 18.265,79.907      37.777,79.907 38.861,189.936 176.26,183.973 176.26,83.43 196.312,83.43 158.645,45.761 158.645,24.894 141.57,23.81      141.3,41.967 102.304,13.783    "
           id="polygon23" /></g><g
         id="Layer_3"
         display="inline"><polygon
           fill="none"
           stroke="#E30613"
           stroke-width="9"
           stroke-miterlimit="10"
           points="95.5,15.409 26.937,72.861 71.11,75.571      26.937,132.211 73.007,132.211 69.213,187.495 122.33,184.243 110.677,133.564 165.689,129.229 112.846,78.01 163.251,74.487         "
           id="polygon26" /></g></g><g
       id="Layer_5"
       display="none" /><circle
       display="none"
       fill="#FFCCFF"
       cx="108"
       cy="108"
       r="23"
       id="circle50" /><circle
       cx="108"
       cy="108"
       r="7"
       id="circle52" /></g></svg>